<svg class="icon" xmlns="http://www.w3.org/2000/svg" version="1.1" viewBox="0.0 0.0 960.0 960.0" fill="none" stroke="none" stroke-linecap="square" stroke-miterlimit="10"><clipPath id="p.0"><path d="m0 0l960.0 0l0 960.0l-960.0 0l0 -960.0z" clip-rule="nonzero"/></clipPath><g clip-path="url(#p.0)"><path fill="#000000" fill-opacity="0.0" d="m0 0l960.0 0l0 960.0l-960.0 0z" fill-rule="evenodd"/><path fill="#000000" d="m119.03545 166.15492l360.0 0l0 288.09448l-360.0 0z" fill-rule="evenodd"/><path fill="#000000" d="m479.08777 933.74805c-95.50867 0.018432617 -187.10846 -50.567566 -254.63646 -140.62317c-67.527985 -90.05554 -105.448944 -212.19885 -105.41573 -339.54376l359.99997 0.16690063z" fill-rule="evenodd"/><path fill="#000000" d="m121.06166 180.16568l0 0c-8.57563 -32.006424 10.418411 -64.906044 42.424377 -73.48337l299.4347 -80.245865c15.369812 -4.118973 31.746063 -1.9635258 45.526123 5.9921722c13.78006 7.9556923 23.835236 21.059948 27.9534 36.429977l0 0l0 0c8.575623 32.006424 -10.418457 64.90604 -42.424408 73.48337l-299.4347 80.245865c-32.005966 8.577316 -64.903854 -10.415726 -73.47949 -42.42215z" fill-rule="evenodd"/><path fill="#000000" d="m357.1374 141.01706l121.921265 0l0 225.00787l-121.921265 0z" fill-rule="evenodd"/><path fill="#000000" d="m479.05908 526.2493l0 408.0l-97.7323 -408.0z" fill-rule="evenodd"/><path fill="#000000" d="m780.9344 511.6824l0 0c33.137085 0 60.002075 -26.862915 60.00464 -60.0l0.022216797 -286.96063c0.0012207031 -15.912979 -6.319031 -31.174225 -17.570312 -42.4264c-11.251343 -11.252182 -26.512085 -17.573593 -42.42505 -17.573593l0 0l0 0c-33.137085 0 -60.002075 26.862907 -60.00464 59.999992l-0.022216797 286.96063c-0.0025634766 33.137085 26.858276 60.0 59.99536 60.0z" fill-rule="evenodd"/><path fill="#000000" d="m477.63705 933.731c96.05789 1.0792236 188.45193 -49.07379 256.62595 -139.30072c68.17395 -90.22699 106.4729 -213.04364 106.375854 -341.12524l-120.01672 0.14767456l0 0c0.05883789 96.11606 -25.509094 188.27219 -71.00891 255.94162c-45.499817 67.66943 -107.152466 105.23187 -171.22556 104.32068z" fill-rule="evenodd"/><path fill="#000000" d="m838.93835 178.16656l0 0c8.575623 -32.006424 -10.418945 -64.90406 -42.4256 -73.47893l-296.50317 -79.43586c-15.370117 -4.117794 -31.746674 -1.961216 -45.526978 5.9953136c-13.780304 7.9565315 -23.83554 21.061253 -27.953705 36.43128l0 0l0 0c-8.575653 32.006424 10.418915 64.90406 42.425568 73.47892l296.50317 79.43587c32.006653 8.57486 64.90509 -10.420181 73.48071 -42.42659z" fill-rule="evenodd"/></g></svg>